<svg xmlns="http://www.w3.org/2000/svg" height="800" width="1200" version="1" viewBox="-41.5305 -68.85925 359.931 413.1555"><path fill-rule="evenodd" fill="#2b67ac" d="M141.09 0v36.563c16.116-.977 28.727-11.297 37.564-30.72C166.608 2.197 153.994.234 141.09 0zm-5.842.031c-12.64.295-25.003 2.236-36.813 5.813 8.698 19.12 21.056 29.44 36.813 30.687zM92.84 7.688a136.16 136.16 0 00-31 15.53c21.882 25.008 46.564 38.16 73.407 39.157v-20c-18.183-1.278-32.772-13.2-42.407-34.688zm91.375 0c-9.767 21.783-24.593 33.72-43.125 34.718v20c27.135-.774 52.037-13.945 74.125-39.187a136.227 136.227 0 00-31-15.532zM57.06 26.593A139.429 139.429 0 0041.123 40.28c-2.863 2.863-5.58 5.873-8.157 8.938C54.884 73.662 91.88 87.87 135.248 88.562V68.22c-28.765-.995-55.042-14.982-78.188-41.625zm162.969 0c-23.35 26.878-49.88 40.883-78.938 41.656v20.344c43.694-.536 80.953-14.788 103-39.375-2.578-3.064-5.26-6.073-8.125-8.938a139.43 139.43 0 00-15.937-13.687zM29.279 53.812C20.729 64.9 13.988 77.094 9.216 90.063c39.883 20.858 87.79 24.087 126.032 24.25V94.406c-44.62-.693-82.874-15.354-105.97-40.594zm218.53 0C224.584 79.197 186.035 93.9 141.092 94.439v19.874c38.362-.124 86.638-3.253 126.782-24.25-4.77-12.97-11.513-25.165-20.063-36.25zM7.31 95.656c-12.032 32.437-7.16 65.305 0 84.125 40.532-20.913 88.543-24.291 127.064-24.5v.063h8.03v-.063c38.53.204 86.603 3.575 127.157 24.5 7.16-18.82 12.033-51.69 0-84.125-40.552 20.927-88.624 24.293-127.156 24.5v-.093h-8.031v.093c-38.52-.208-86.532-3.586-127.063-24.5zm12.345 28.781h32.812c5.213 0 10.813 3.433 10.813 9.844 0 .482-.033.96-.094 1.406l7.969-11.218h16.594l13.812 18.187V124.47h17.938l15.906 16.375v-16.406h13.25c.794 0 .652.624 0 .624-5.246 0-7.47 3.614-7.47 5.5v21.5h-9.624c-3.29 0-5.268-1.786-6.281-2.843l-17.938-18.25v12.312c.095 4.899 3.537 7.594 8.782 7.594.652 0 .796 1.188 0 1.188H96.466c-3.761 0-6.05-1.554-7.062-3.063l-3.75-4.906H68.716c-1.158 0-3.44.562-3.812 2.406-.657 3.254 1.66 4.375 6.906 4.375.65 0 .795 1.219 0 1.219H51.28c.652-.753 2.154-2.93 3.094-4.063l3.78-5.312c-1.745.935-3.735 1.406-5.687 1.406l-14.937-.031c-1.157 0-3.813.521-3.813 2.406 0 3.644 1.662 4.375 6.907 4.375.652 0 .796 1.219 0 1.219h-20.97v-27.656zm151.156.626h16.594l13.78 18.187v-18.188h17.064c-.073 0 9.937 12.594 9.937 12.594l9.313-12.594h23c.796 0 .652.876 0 .876-6.8 0-8 3.332-8 5.218v15.063c0 1.886 1.2 5.219 8 5.219.652 0 .796.625 0 .625h-20.25v-19.907l-14.094 19.906h-3.406l-15.782-19.53v11.312c0 3.922 3.568 7.625 8.813 7.625.652 0 .794.594 0 .594h-19.656c-3.762 0-6.083-.962-7.094-2.47l-3.72-4.905h-16.968c-1.156 0-3.622.527-3.78 2.406-.282 3.351 1.66 4.375 6.905 4.375.652 0 .796.594 0 .594h-20.562c.65-.752 2.185-2.337 3.125-3.47zm-95.812 5l-5.72 8H81.06zm-41.47.468v7.531H44.56c1.993 0 3.625-1.705 3.625-3.78 0-2.076-1.632-3.75-3.625-3.75H33.53zm141.095.125l-5.688 8h11.78zm-39.375 30.438c-38.24.164-86.15 3.424-126.032 24.281 4.772 12.97 11.514 25.164 20.063 36.25 23.096-25.24 61.348-39.9 105.969-40.594zm5.843 0V181c44.915.536 83.423 15.21 106.657 40.563 8.395-10.911 15.208-23.084 20.062-36.22-40.135-20.976-88.37-24.123-126.72-24.25zm0 25.75v20.344c29.035.772 55.54 14.727 78.875 41.562a138.757 138.757 0 0024.094-22.563c-22.053-24.559-59.301-38.807-102.97-39.343zm-5.843.031c-43.366.69-80.362 14.899-102.282 39.344a141.362 141.362 0 008.157 8.906 140.003 140.003 0 0015.937 13.719c23.146-26.645 49.423-40.632 78.188-41.625zm5.843 26.156v20c18.514.998 33.325 12.917 43.094 34.656a137.652 137.652 0 0031-15.53c-22.075-25.202-46.98-38.353-74.094-39.126zm-5.843.031c-26.843.998-51.525 14.149-73.407 39.157a136.159 136.159 0 0031 15.531c9.635-21.488 24.224-33.408 42.407-34.688zm5.843 25.813v36.562c13.03-.238 25.616-2.275 37.532-5.906-8.836-19.382-21.434-29.681-37.532-30.656zm-5.843.031c-15.76 1.248-28.116 11.57-36.813 30.688 11.81 3.576 24.172 5.516 36.813 5.812z"/></svg>